<?xml version="1.0" encoding="UTF-8" standalone="no"?>
<svg
   version="1.0"
   width="109.93787"
   height="120.95317"
   viewBox="0 0 109.93787 120.95317"
   preserveAspectRatio="xMidYMid"
   id="svg36"
   sodipodi:docname="Codexart.svg"
   inkscape:export-filename="Codexart.svg"
   inkscape:export-xdpi="96"
   inkscape:export-ydpi="96"
   xmlns:inkscape="http://www.inkscape.org/namespaces/inkscape"
   xmlns:sodipodi="http://sodipodi.sourceforge.net/DTD/sodipodi-0.dtd"
   xmlns="http://www.w3.org/2000/svg"
   xmlns:svg="http://www.w3.org/2000/svg">
  <sodipodi:namedview
     id="namedview1"
     pagecolor="#ffffff"
     bordercolor="#000000"
     borderopacity="0.25"
     inkscape:showpageshadow="2"
     inkscape:pageopacity="0.0"
     inkscape:pagecheckerboard="0"
     inkscape:deskcolor="#d1d1d1" />
  <defs
     id="defs36" />
  <g
     fill="#2ca7b9"
     id="g10"
     transform="translate(-12.062125,-6)">
    <path
       d="m 51.1,125.9 c -3,-0.5 -8.7,-2.5 -12.7,-4.4 C 24.2,114.6 15,103.1 13,89.4 11.8,80.6 11.7,63.2 13,55.7 15,42.9 23,33.5 37.5,26.5 46.3,22.3 88.6,6 90.9,6 c 0.7,0 1.1,2.2 1.1,6 0,4.9 -0.3,6.2 -1.7,6.7 -12.1,4.3 -48.8,19 -51.9,20.8 -5.5,3.2 -10.1,8.6 -11.3,13.2 -0.6,2.1 -1.1,11.5 -1.2,20.8 -0.2,15.3 0,17.5 1.9,21.7 2.4,5.5 8.6,11.9 14,14.7 13.9,7.1 37,6.7 50.9,-0.8 2.8,-1.6 5.5,-2.6 5.8,-2.3 0.3,0.3 0.5,3.2 0.5,6.3 v 5.9 l -5,2.5 c -9.8,5 -28.1,6.8 -42.9,4.4 z"
       id="path5" />
    <path
       d="M 109,81.5 C 109,54.2 108.6,37 108.1,37 c -0.6,0 -4.5,1.6 -8.8,3.6 C 93.9,43 90.6,44 88.5,43.7 85,43.1 73.5,38.2 74.1,37.5 74.4,37.3 82.2,34 91.6,30.2 l 16.9,-6.8 0.3,-7.2 c 0.2,-4 0.5,-7.2 0.8,-7.2 0.3,0 3.2,1.5 6.5,3.3 l 5.9,3.2 v 53.1 53.1 l -5.1,2.2 c -2.9,1.1 -5.8,2.1 -6.5,2.1 -1.2,0 -1.4,-7.5 -1.4,-44.5 z"
       id="path6" />
    <path
       d="M 55.9,101.6 C 36.9,94.8 29.4,74 40.2,58.3 48.1,46.7 66.1,41.7 80.4,47.1 c 15.1,5.6 22.6,20.1 18.2,35.2 -2.2,7.6 -10,15.6 -18.1,18.6 -6.5,2.4 -18.8,2.8 -24.6,0.7 z M 79.3,87.7 C 84.1,84 86.1,81 86.7,76.1 87.5,70.5 86.5,67.5 82.4,63 75.1,54.9 62.1,54.3 53.9,61.7 c -6.7,6 -7.4,14 -2.1,22.2 3.7,5.8 7.1,7.2 16.3,6.9 6.5,-0.3 8.1,-0.7 11.2,-3.1 z"
       id="path7" />
  </g>
</svg>
